<?xml
	version = "1.0"
	standalone = "no"
?>

<!DOCTYPE
	svg
	PUBLIC
	"-//W3C//DTD SVG 12//EN"
	"http://www.w3.org/Graphics/SVG/1.2/DTD/svg12.dtd"
>

<svg
	xmlns = "http://www.w3.org/2000/svg"
	viewbox = "0 0 400 400"
	baseProfile = "tiny"
	version = "1.2"
>

	<rect
		x = "5"
		y = "5"
		rx = "10"
		ry = "10"
		width = "390"
		height = "390"
		fill = "brown"
		stroke = "black"
		stroke-width = "1"
	/>

	<path
		d = 
			"
				M 200 200
				L 200 15
				A 
					185 185
					0 0 1
					377.60 151.90 
				Z
			"
		fill = "red"
		stroke = "white"
		stroke-width = "3"
	/>

	<path
		d = 
			"
				M 200 200
				L 377.60 151.90
				A 
					185 185
					0 0 1
					168.55 381.30 
				Z
			"
		fill = "orange"
		stroke = "white"
		stroke-width = "3"
	/>

	<path
		d = 
			"
				M 200 200
				L 168.55 381.30
				A 
					185 185
					0 0 1
					200 15 
				Z
			"
		fill = "yellow"
		stroke = "white"
		stroke-width = "3"
	/>

	<text 
		font-size = "10" 
		font-family = "sans-serif" 
		font-weight = "bold" 
		fill = "black" 
		text-anchor = "start"
		x = "200" 
		y = "200"
		transform = 
			"
				translate(27.75 -36.53)
				rotate(-52.50000001 200 200)
			" 
	>
		Cats
	</text>

	<text 
		font-size = "10" 
		font-family = "sans-serif" 
		font-weight = "bold" 
		fill = "black" 
		text-anchor = "start"
		x = "200" 
		y = "200"
		transform = 
			"
				translate(33.76 31.45)
				rotate(42.49999998 200 200)
			" 
	>
		Dogs
	</text>

	<text 
		font-size = "10" 
		font-family = "sans-serif" 
		font-weight = "bold" 
		fill = "black" 
		text-anchor = "start"
		x = "200" 
		y = "200"
		transform = 
			"
				translate(-45.78 -4.16)
				rotate(184.99999996 200 200)
			" 
	>
		Birds
	</text>

</svg>
